<svg width="1032" height="261" viewBox="0 0 1032 261" fill="none" xmlns="http://www.w3.org/2000/svg">
<g filter="url(#filter0_b_121_8)">
<rect y="0.486328" width="1032" height="260" rx="130" fill="white" fill-opacity="0.05"/>
<rect x="0.5" y="0.986328" width="1031" height="259" rx="129.5" stroke="url(#paint0_linear_121_8)"/>
</g>
<path d="M787.462 57.251L721.925 94.7066M787.462 57.251L851.488 94.7066M787.462 57.251L853 167.62M787.462 57.251L720.412 167.62M787.462 57.251L786.454 100.2M721.925 94.7066L720.412 167.62M721.925 94.7066H851.488M721.925 94.7066L786.454 206.075M721.925 94.7066L759.231 115.682M720.412 167.62L786.454 206.075M720.412 167.62H853M720.412 167.62L759.231 146.645M786.454 206.075L853 167.62M786.454 206.075L851.488 94.7066M786.454 206.075L787.462 161.627M853 167.62L851.488 94.7066M853 167.62L814.686 146.645M851.488 94.7066L814.686 115.682M814.686 115.682V146.645M814.686 115.682L786.454 100.2M814.686 146.645L787.462 161.627M787.462 161.627L759.231 146.645M759.231 146.645V115.682M759.231 115.682L786.454 100.2M771.834 119.178L786.454 113.684L801.578 119.178V139.154C801.578 139.154 796.033 150.141 786.454 149.142C786.454 149.142 774.355 148.643 771.834 139.154V119.178Z" stroke="#5456E1" stroke-width="2"/>
<path d="M782.648 131.211L785.693 134.368L794.825 127.604" stroke="#5456E1"/>
<path d="M853 130.31H899" stroke="#5456E1" stroke-width="2"/>
<circle cx="852.325" cy="93.1039" r="6.08824" fill="#5456E1"/>
<circle cx="722.442" cy="93.1039" r="6.08824" fill="#5456E1"/>
<circle cx="722.442" cy="168.869" r="6.08824" fill="#5456E1"/>
<circle cx="852.325" cy="168.869" r="6.08824" fill="#5456E1"/>
<circle cx="788.737" cy="56.5746" r="6.08824" fill="#5456E1"/>
<circle cx="786.5" cy="205.986" r="4.5" fill="#5456E1"/>
<path d="M516.074 89.1129C514.38 89.3263 513.054 89.9496 512.094 90.9829C511.36 91.7763 511.417 92.5096 512.264 93.1829C513.884 94.4629 515.74 94.8496 517.834 94.3429C518.2 94.2496 518.374 94.3929 518.354 94.7729L518.334 95.0929C518.331 95.1805 518.297 95.2647 518.239 95.3318C518.181 95.3989 518.102 95.4451 518.014 95.4629C515.14 96.0763 512.584 95.4663 510.344 93.6329C510.089 93.4247 509.883 93.1624 509.742 92.8649C509.601 92.5674 509.527 92.2422 509.527 91.9129C509.527 91.5836 509.601 91.2584 509.742 90.961C509.883 90.6635 510.089 90.4011 510.344 90.1929C513.364 87.7129 520.374 86.6129 522.814 90.7529C523.134 91.2929 523.19 91.7996 522.984 92.2729C522.757 92.7863 522.374 93.0663 521.834 93.1129C521.467 93.1463 521.26 92.9796 521.214 92.6129C520.814 89.8996 519.1 88.7329 516.074 89.1129Z" fill="#000002"/>
<path d="M526.665 98.5531L523.725 96.6731C523.451 96.4998 523.168 96.4864 522.875 96.6331C521.561 97.3131 520.255 97.9398 518.955 98.5131C518.608 98.6664 518.345 98.5864 518.165 98.2731C518.087 98.14 518.064 97.9819 518.102 97.8324C518.139 97.6829 518.233 97.5539 518.365 97.4731C521.031 95.8864 523.748 94.2964 526.515 92.7031C526.701 92.5898 526.868 92.5431 527.015 92.5631C527.201 92.5831 527.378 92.6664 527.545 92.8131C527.627 92.885 527.691 92.9759 527.732 93.078C527.772 93.1801 527.786 93.2904 527.775 93.3995C527.763 93.5085 527.725 93.6131 527.664 93.7042C527.603 93.7954 527.521 93.8705 527.425 93.9231L525.205 95.1631C524.745 95.4164 524.738 95.6831 525.185 95.9631L528.215 97.8531C528.343 97.9353 528.491 97.9831 528.643 97.9919C528.795 98.0006 528.947 97.9701 529.085 97.9031L533.095 95.9731C533.243 95.9124 533.409 95.9091 533.56 95.9636C533.712 96.0181 533.837 96.1267 533.913 96.2683C533.989 96.41 534.009 96.5747 533.971 96.7307C533.932 96.8867 533.838 97.023 533.705 97.1131C530.978 98.6931 528.268 100.263 525.575 101.823C525.308 101.983 525.058 102.05 524.825 102.023C524.531 101.99 524.288 101.886 524.095 101.713C524.03 101.659 523.979 101.59 523.948 101.512C523.916 101.433 523.904 101.348 523.913 101.264C523.922 101.179 523.951 101.098 523.999 101.026C524.046 100.954 524.11 100.895 524.185 100.853L526.635 99.5031C527.181 99.2031 527.191 98.8864 526.665 98.5531Z" fill="#000002"/>
<path d="M495.764 101.733L498.454 103.243C498.596 103.316 498.703 103.442 498.752 103.594C498.8 103.746 498.787 103.911 498.714 104.053C498.641 104.195 498.515 104.302 498.363 104.351C498.211 104.4 498.046 104.386 497.904 104.313C496.124 103.493 494.401 102.583 492.734 101.583C492.662 101.54 492.602 101.479 492.561 101.405C492.52 101.332 492.499 101.249 492.5 101.165C492.501 101.081 492.524 100.999 492.567 100.927C492.61 100.854 492.671 100.794 492.744 100.753L501.094 96.0631C501.172 96.0196 501.259 95.9951 501.349 95.9916C501.44 95.9882 501.53 96.0058 501.614 96.0431C502.547 96.4698 502.591 96.8831 501.744 97.2831C499.611 98.2831 497.601 99.4764 495.714 100.863C495.281 101.183 495.297 101.473 495.764 101.733Z" fill="#000002"/>
<path d="M534.265 105.013C532.665 103.039 530.645 102.633 528.205 103.793C528.061 103.863 527.896 103.881 527.739 103.843C527.582 103.804 527.443 103.712 527.345 103.583L527.125 103.293C527.081 103.237 527.051 103.172 527.039 103.102C527.027 103.033 527.033 102.961 527.056 102.895C527.079 102.828 527.118 102.768 527.17 102.72C527.223 102.673 527.286 102.639 527.355 102.623L538.965 99.6326C539.217 99.5701 539.483 99.5873 539.725 99.6818C539.968 99.7763 540.175 99.9435 540.318 100.16C540.462 100.377 540.535 100.633 540.527 100.893C540.519 101.153 540.431 101.405 540.275 101.613L535.495 107.843C535.433 107.926 535.352 107.994 535.259 108.04C535.166 108.085 535.063 108.108 534.96 108.106C534.856 108.104 534.754 108.078 534.663 108.028C534.571 107.979 534.493 107.908 534.435 107.823C534.061 107.276 534.038 106.696 534.365 106.083C534.571 105.703 534.538 105.346 534.265 105.013ZM534.195 102.953L534.825 104.023C534.881 104.117 534.972 104.186 535.079 104.214C535.186 104.242 535.299 104.227 535.395 104.173L535.525 104.103C535.905 103.881 536.27 103.641 536.597 103.397C536.925 103.152 537.21 102.908 537.436 102.678C537.662 102.447 537.824 102.236 537.913 102.055C538.002 101.874 538.016 101.727 537.955 101.623L537.835 101.413C537.709 101.205 537.286 101.181 536.659 101.348C536.031 101.515 535.25 101.858 534.485 102.303L534.355 102.383C534.258 102.437 534.187 102.528 534.157 102.635C534.127 102.741 534.141 102.856 534.195 102.953Z" fill="#000002"/>
<path d="M508.478 100.199L500.393 104.755C500.056 104.945 499.937 105.372 500.127 105.708L500.156 105.761C500.346 106.098 500.773 106.217 501.11 106.027L509.195 101.471C509.531 101.282 509.651 100.855 509.461 100.518L509.431 100.466C509.242 100.129 508.815 100.01 508.478 100.199Z" fill="#000002"/>
<path d="M512.525 109.284C514.435 108.454 517.195 106.024 519.175 105.974C519.299 105.974 519.421 106.015 519.52 106.091C519.619 106.167 519.69 106.273 519.723 106.393C519.756 106.513 519.749 106.641 519.702 106.757C519.655 106.873 519.572 106.97 519.465 107.034L511.325 111.754C511.101 111.881 510.844 111.937 510.587 111.913C510.331 111.888 510.089 111.786 509.894 111.618C509.699 111.451 509.562 111.228 509.501 110.98C509.441 110.732 509.459 110.471 509.555 110.234L511.525 105.304C511.751 104.73 511.585 104.577 511.025 104.844C508.911 105.85 506.868 106.917 504.895 108.044C504.435 108.304 504.051 108.347 503.745 108.174C503.669 108.127 503.606 108.063 503.563 107.985C503.519 107.908 503.496 107.821 503.496 107.734C503.496 107.646 503.519 107.56 503.563 107.484C503.606 107.409 503.669 107.347 503.745 107.304L511.685 102.574C511.965 102.404 512.292 102.327 512.618 102.355C512.944 102.383 513.254 102.513 513.501 102.728C513.749 102.942 513.923 103.229 513.997 103.548C514.071 103.867 514.042 104.202 513.915 104.504L512.095 108.864C511.888 109.364 512.031 109.504 512.525 109.284Z" fill="#000002"/>
<path d="M545.717 103.563L537.569 108.21C537.2 108.421 537.071 108.891 537.282 109.261L537.302 109.295C537.512 109.665 537.983 109.793 538.352 109.583L546.5 104.935C546.869 104.725 546.998 104.254 546.787 103.885L546.767 103.85C546.557 103.481 546.086 103.352 545.717 103.563Z" fill="#000002"/>
<path d="M549.984 112.533C551.57 111.74 553.1 110.853 554.574 109.873C555.274 109.406 555.967 109.29 556.654 109.523C556.759 109.56 556.851 109.627 556.92 109.714C556.989 109.802 557.032 109.907 557.043 110.018C557.055 110.129 557.035 110.241 556.985 110.341C556.936 110.441 556.859 110.525 556.764 110.583C554.137 112.11 551.424 113.61 548.624 115.083C547.61 115.623 547.017 115.2 546.844 113.813C546.824 113.695 546.838 113.574 546.884 113.463L548.654 108.793C548.68 108.722 548.684 108.644 548.665 108.571C548.645 108.497 548.604 108.432 548.546 108.383C548.488 108.333 548.417 108.303 548.341 108.296C548.265 108.289 548.19 108.305 548.124 108.343L542.244 111.733C542.052 111.843 541.825 111.873 541.612 111.817C541.399 111.76 541.216 111.623 541.104 111.433C540.764 110.853 540.934 110.423 541.614 110.143C544.224 109.083 546.754 107.243 549.164 105.903C549.446 105.747 549.769 105.683 550.089 105.719C550.409 105.754 550.711 105.888 550.952 106.102C551.193 106.315 551.362 106.598 551.436 106.912C551.509 107.226 551.484 107.554 551.364 107.853L549.574 112.163C549.374 112.65 549.51 112.773 549.984 112.533Z" fill="#000002"/>
<path d="M521.084 111.433C523.47 111.266 525.844 111.219 528.204 111.293C528.657 111.313 528.967 111.473 529.134 111.773C529.354 112.173 529.237 112.376 528.784 112.383L523.094 112.503C522.78 112.51 522.477 112.623 522.235 112.822C521.992 113.022 521.823 113.296 521.754 113.603L520.964 117.083C520.89 117.409 520.69 117.526 520.364 117.433L519.474 117.193C519.31 117.15 519.17 117.045 519.082 116.9C518.995 116.754 518.967 116.58 519.004 116.413L519.704 113.063C519.73 112.936 519.722 112.804 519.679 112.682C519.636 112.56 519.56 112.452 519.461 112.369C519.361 112.287 519.24 112.233 519.112 112.215C518.984 112.196 518.853 112.212 518.734 112.263L514.234 114.153C514.088 114.217 513.922 114.223 513.772 114.168C513.622 114.114 513.499 114.004 513.428 113.861C513.357 113.718 513.344 113.553 513.392 113.4C513.439 113.248 513.544 113.12 513.684 113.043L522.404 107.993C522.542 107.91 522.706 107.88 522.864 107.91C523.023 107.939 523.165 108.025 523.264 108.153C523.41 108.346 523.477 108.549 523.464 108.763C523.461 108.794 523.451 108.824 523.435 108.852C523.42 108.879 523.399 108.903 523.374 108.923L520.824 110.663C520.746 110.714 520.688 110.789 520.657 110.877C520.627 110.964 520.627 111.06 520.656 111.148C520.686 111.236 520.744 111.312 520.822 111.363C520.899 111.415 520.991 111.439 521.084 111.433Z" fill="#000002"/>
<path d="M720.5 137.986H578" stroke="#5456E1"/>
<path d="M576.5 105.486L522.5 73.4863L468 105.486V168.486L524 199.986L576.5 168.486V105.486Z" fill="#5456E1" stroke="#5456E1"/>
<rect x="636.5" y="132.986" width="20" height="10" rx="5" fill="#5456E1"/>
<rect x="388.5" y="132.986" width="20" height="10" rx="5" fill="#5456E1"/>
<path d="M636.5 137.723C636.5 135.107 638.621 132.986 641.237 132.986H648.5V142.986H641.763C638.856 142.986 636.5 140.63 636.5 137.723Z" fill="#9192FF"/>
<circle cx="647.5" cy="106.986" r="13" fill="#5456E1"/>
<circle cx="647.5" cy="167.986" r="13" fill="#5456E1"/>
<circle cx="666" cy="107.486" r="1.5" fill="url(#paint1_linear_121_8)"/>
<circle cx="612" cy="168.486" r="1.5" fill="#5456E1"/>
<circle cx="674" cy="107.486" r="1.5" fill="url(#paint2_linear_121_8)"/>
<circle cx="620" cy="168.486" r="1.5" fill="#5456E1"/>
<circle cx="682" cy="107.486" r="1.5" fill="url(#paint3_linear_121_8)"/>
<circle cx="628" cy="168.486" r="1.5" fill="#5456E1"/>
<path d="M523 75.4863L576 106.986L521.5 138.986L470 106.486L523 75.4863Z" fill="#1A303E"/>
<path d="M520.5 140.486L522.5 196.986L469.5 166.986V107.486L520.5 140.486Z" fill="#1A303E"/>
<path d="M478 126.986H474L477 131.986" stroke="white"/>
<path d="M486.5 131.486L489.5 135.986L486.5 136.486" stroke="white"/>
<path d="M484 129.486L480.5 133.486" stroke="white"/>
<path d="M474.5 134.986L501.5 149.986" stroke="white"/>
<path d="M474.5 138.486L512 160.486" stroke="white"/>
<path d="M474.5 141.986L514.5 165.486" stroke="white"/>
<path d="M474.5 145.486L494 157.486" stroke="white"/>
<path d="M474 149.486L501 165.486" stroke="white"/>
<path d="M477.5 156.986H474L477.5 162.486" stroke="white"/>
<path d="M486 161.986L489.5 165.986L486 166.486" stroke="white"/>
<path d="M483.5 159.986L480 163.986" stroke="white"/>
<path d="M322 60.9863V137.236M322 205.986V137.236M322 137.236H467" stroke="#5456E1"/>
<path d="M642.646 107.133C642.451 107.328 642.451 107.645 642.646 107.84L645.828 111.022C646.024 111.217 646.34 111.217 646.536 111.022C646.731 110.827 646.731 110.51 646.536 110.315L643.707 107.486L646.536 104.658C646.731 104.463 646.731 104.146 646.536 103.951C646.34 103.756 646.024 103.756 645.828 103.951L642.646 107.133ZM653 106.986H643V107.986H653V106.986Z" fill="white"/>
<path d="M652.354 168.84C652.549 168.645 652.549 168.328 652.354 168.133L649.172 164.951C648.976 164.756 648.66 164.756 648.464 164.951C648.269 165.146 648.269 165.463 648.464 165.658L651.293 168.486L648.464 171.315C648.269 171.51 648.269 171.827 648.464 172.022C648.66 172.217 648.976 172.217 649.172 172.022L652.354 168.84ZM641.5 168.986H652V167.986H641.5V168.986Z" fill="white"/>
<path d="M575 109.986V168.486L524 197.486L522.5 139.986L575 109.986Z" fill="#1A303E"/>
<path d="M518.574 88.6129C516.88 88.8263 515.554 89.4496 514.594 90.4829C513.86 91.2763 513.917 92.0096 514.764 92.6829C516.384 93.9629 518.24 94.3496 520.334 93.8429C520.7 93.7496 520.874 93.8929 520.854 94.2729L520.834 94.5929C520.831 94.6805 520.797 94.7647 520.739 94.8318C520.681 94.8989 520.602 94.9451 520.514 94.9629C517.64 95.5763 515.084 94.9663 512.844 93.1329C512.589 92.9247 512.383 92.6624 512.242 92.3649C512.101 92.0674 512.027 91.7422 512.027 91.4129C512.027 91.0836 512.101 90.7584 512.242 90.461C512.383 90.1635 512.589 89.9011 512.844 89.6929C515.864 87.2129 522.874 86.1129 525.314 90.2529C525.634 90.7929 525.69 91.2996 525.484 91.7729C525.257 92.2863 524.874 92.5663 524.334 92.6129C523.967 92.6463 523.76 92.4796 523.714 92.1129C523.314 89.3996 521.6 88.2329 518.574 88.6129Z" fill="white"/>
<path d="M529.165 98.0531L526.225 96.1731C525.951 95.9998 525.668 95.9864 525.375 96.1331C524.061 96.8131 522.755 97.4398 521.455 98.0131C521.108 98.1664 520.845 98.0864 520.665 97.7731C520.587 97.64 520.564 97.4819 520.602 97.3324C520.639 97.1829 520.733 97.0539 520.865 96.9731C523.531 95.3864 526.248 93.7964 529.015 92.2031C529.201 92.0898 529.368 92.0431 529.515 92.0631C529.701 92.0831 529.878 92.1664 530.045 92.3131C530.127 92.385 530.191 92.4759 530.232 92.578C530.272 92.6801 530.286 92.7904 530.275 92.8995C530.263 93.0085 530.225 93.1131 530.164 93.2042C530.103 93.2954 530.021 93.3705 529.925 93.4231L527.705 94.6631C527.245 94.9164 527.238 95.1831 527.685 95.4631L530.715 97.3531C530.843 97.4353 530.991 97.4831 531.143 97.4919C531.295 97.5006 531.447 97.4701 531.585 97.4031L535.595 95.4731C535.743 95.4124 535.909 95.4091 536.06 95.4636C536.212 95.5181 536.337 95.6267 536.413 95.7683C536.489 95.91 536.509 96.0747 536.471 96.2307C536.432 96.3867 536.338 96.523 536.205 96.6131C533.478 98.1931 530.768 99.7631 528.075 101.323C527.808 101.483 527.558 101.55 527.325 101.523C527.031 101.49 526.788 101.386 526.595 101.213C526.53 101.159 526.479 101.09 526.448 101.012C526.416 100.933 526.404 100.848 526.413 100.764C526.422 100.679 526.451 100.598 526.499 100.526C526.546 100.454 526.61 100.395 526.685 100.353L529.135 99.0031C529.681 98.7031 529.691 98.3864 529.165 98.0531Z" fill="white"/>
<path d="M498.264 101.233L500.954 102.743C501.096 102.816 501.203 102.942 501.252 103.094C501.3 103.246 501.287 103.411 501.214 103.553C501.141 103.695 501.015 103.802 500.863 103.851C500.711 103.9 500.546 103.886 500.404 103.813C498.624 102.993 496.901 102.083 495.234 101.083C495.162 101.04 495.102 100.979 495.061 100.905C495.02 100.832 494.999 100.749 495 100.665C495.001 100.581 495.024 100.499 495.067 100.427C495.11 100.354 495.171 100.294 495.244 100.253L503.594 95.5631C503.672 95.5196 503.759 95.4951 503.849 95.4916C503.94 95.4882 504.03 95.5058 504.114 95.5431C505.047 95.9698 505.091 96.3831 504.244 96.7831C502.111 97.7831 500.101 98.9764 498.214 100.363C497.781 100.683 497.797 100.973 498.264 101.233Z" fill="white"/>
<path d="M536.765 104.513C535.165 102.539 533.145 102.133 530.705 103.293C530.561 103.363 530.396 103.381 530.239 103.343C530.082 103.304 529.943 103.212 529.845 103.083L529.625 102.793C529.581 102.737 529.551 102.672 529.539 102.602C529.527 102.533 529.533 102.461 529.556 102.395C529.579 102.328 529.618 102.268 529.67 102.22C529.723 102.173 529.786 102.139 529.855 102.123L541.465 99.1326C541.717 99.0701 541.983 99.0873 542.225 99.1818C542.468 99.2763 542.675 99.4435 542.818 99.6605C542.962 99.8774 543.035 100.133 543.027 100.393C543.019 100.653 542.931 100.905 542.775 101.113L537.995 107.343C537.933 107.426 537.852 107.494 537.759 107.54C537.666 107.585 537.563 107.608 537.46 107.606C537.356 107.604 537.254 107.578 537.163 107.528C537.071 107.479 536.993 107.408 536.935 107.323C536.561 106.776 536.538 106.196 536.865 105.583C537.071 105.203 537.038 104.846 536.765 104.513ZM536.695 102.453L537.325 103.523C537.381 103.617 537.472 103.686 537.579 103.714C537.686 103.742 537.799 103.727 537.895 103.673L538.025 103.603C538.405 103.381 538.77 103.141 539.097 102.897C539.425 102.652 539.71 102.408 539.936 102.178C540.162 101.947 540.324 101.736 540.413 101.555C540.502 101.374 540.516 101.227 540.455 101.123L540.335 100.913C540.209 100.705 539.786 100.681 539.159 100.848C538.531 101.015 537.75 101.358 536.985 101.803L536.855 101.883C536.758 101.937 536.687 102.028 536.657 102.135C536.627 102.241 536.641 102.356 536.695 102.453Z" fill="white"/>
<path d="M510.978 99.6994L502.893 104.255C502.556 104.445 502.437 104.872 502.627 105.208L502.656 105.261C502.846 105.598 503.273 105.717 503.61 105.527L511.695 100.971C512.031 100.782 512.151 100.355 511.961 100.018L511.931 99.9656C511.742 99.6288 511.315 99.5096 510.978 99.6994Z" fill="white"/>
<path d="M515.025 108.784C516.935 107.954 519.695 105.524 521.675 105.474C521.799 105.474 521.921 105.515 522.02 105.591C522.119 105.667 522.19 105.773 522.223 105.893C522.256 106.013 522.249 106.141 522.202 106.257C522.155 106.373 522.072 106.47 521.965 106.534L513.825 111.254C513.601 111.381 513.344 111.437 513.087 111.413C512.831 111.388 512.589 111.286 512.394 111.118C512.199 110.951 512.062 110.728 512.001 110.48C511.941 110.232 511.959 109.971 512.055 109.734L514.025 104.804C514.251 104.23 514.085 104.077 513.525 104.344C511.411 105.35 509.368 106.417 507.395 107.544C506.935 107.804 506.551 107.847 506.245 107.674C506.169 107.627 506.106 107.563 506.063 107.485C506.019 107.408 505.996 107.321 505.996 107.234C505.996 107.146 506.019 107.06 506.063 106.984C506.106 106.909 506.169 106.847 506.245 106.804L514.185 102.074C514.465 101.904 514.792 101.827 515.118 101.855C515.444 101.883 515.754 102.013 516.001 102.228C516.249 102.442 516.423 102.729 516.497 103.048C516.571 103.367 516.542 103.702 516.415 104.004L514.595 108.364C514.388 108.864 514.531 109.004 515.025 108.784Z" fill="white"/>
<path d="M548.217 103.063L540.069 107.71C539.7 107.921 539.571 108.391 539.782 108.761L539.802 108.795C540.012 109.165 540.483 109.293 540.852 109.083L549 104.435C549.369 104.225 549.498 103.754 549.287 103.385L549.267 103.35C549.057 102.981 548.586 102.852 548.217 103.063Z" fill="white"/>
<path d="M552.484 112.033C554.07 111.24 555.6 110.353 557.074 109.373C557.774 108.906 558.467 108.79 559.154 109.023C559.259 109.06 559.351 109.127 559.42 109.214C559.489 109.302 559.532 109.407 559.543 109.518C559.555 109.629 559.535 109.741 559.485 109.841C559.436 109.941 559.359 110.025 559.264 110.083C556.637 111.61 553.924 113.11 551.124 114.583C550.11 115.123 549.517 114.7 549.344 113.313C549.324 113.195 549.338 113.074 549.384 112.963L551.154 108.293C551.18 108.222 551.184 108.144 551.165 108.071C551.145 107.997 551.104 107.932 551.046 107.883C550.988 107.833 550.917 107.803 550.841 107.796C550.765 107.789 550.69 107.805 550.624 107.843L544.744 111.233C544.552 111.343 544.325 111.373 544.112 111.317C543.899 111.26 543.716 111.123 543.604 110.933C543.264 110.353 543.434 109.923 544.114 109.643C546.724 108.583 549.254 106.743 551.664 105.403C551.946 105.247 552.269 105.183 552.589 105.219C552.909 105.254 553.211 105.388 553.452 105.602C553.693 105.815 553.862 106.098 553.936 106.412C554.009 106.726 553.984 107.054 553.864 107.353L552.074 111.663C551.874 112.15 552.01 112.273 552.484 112.033Z" fill="white"/>
<path d="M523.584 110.933C525.97 110.766 528.344 110.719 530.704 110.793C531.157 110.813 531.467 110.973 531.634 111.273C531.854 111.673 531.737 111.876 531.284 111.883L525.594 112.003C525.28 112.01 524.977 112.123 524.735 112.322C524.492 112.522 524.323 112.796 524.254 113.103L523.464 116.583C523.39 116.909 523.19 117.026 522.864 116.933L521.974 116.693C521.81 116.65 521.67 116.545 521.582 116.4C521.495 116.254 521.467 116.08 521.504 115.913L522.204 112.563C522.23 112.436 522.222 112.304 522.179 112.182C522.136 112.06 522.06 111.952 521.961 111.869C521.861 111.787 521.74 111.733 521.612 111.715C521.484 111.696 521.353 111.712 521.234 111.763L516.734 113.653C516.588 113.717 516.422 113.723 516.272 113.668C516.122 113.614 515.999 113.504 515.928 113.361C515.857 113.218 515.844 113.053 515.892 112.9C515.939 112.748 516.044 112.62 516.184 112.543L524.904 107.493C525.042 107.41 525.206 107.38 525.364 107.41C525.523 107.439 525.665 107.525 525.764 107.653C525.91 107.846 525.977 108.049 525.964 108.263C525.961 108.294 525.951 108.324 525.935 108.352C525.92 108.379 525.899 108.403 525.874 108.423L523.324 110.163C523.246 110.214 523.188 110.289 523.157 110.377C523.127 110.464 523.127 110.56 523.156 110.648C523.186 110.736 523.244 110.812 523.322 110.863C523.399 110.915 523.491 110.939 523.584 110.933Z" fill="white"/>
<path d="M540 152.551L551.428 138.486H561.5V152.994L549.991 168.486H540V152.551Z" stroke="#5456E1" stroke-width="6"/>
<path d="M388.5 137.723C388.5 135.107 390.621 132.986 393.237 132.986H400.5V142.986H393.763C390.856 142.986 388.5 140.63 388.5 137.723Z" fill="#9092FF"/>
<path d="M191.39 77.976L190.858 86.4866H187.135H200.433M204.156 86.4866H200.433M200.433 86.4866L197.773 79.0801M197.773 79.0801C201.915 78.8704 204.156 76.3802 204.156 76.3802L200.433 72.8059M197.773 79.0801C195.862 79.1768 193.545 78.7878 190.858 77.444C190.858 77.444 184.475 70.5292 189.794 64.1462L190.858 63.6143L195.845 68.4015M200.433 72.8059V69.4653L197.773 67.3377L195.845 68.4015M200.433 72.8059L195.845 68.4015" stroke="#5456E1"/>
<circle cx="200.964" cy="65.2097" r="3.2234" stroke="#5456E1"/>
<path d="M193.003 104.434L183.135 111.013H185.766M198.266 104.434L208.793 111.013H205.503M205.503 111.013V125.486H198.266M205.503 111.013H185.766M185.766 111.013V125.486H193.003M193.003 125.486V116.276H198.266V125.486M193.003 125.486H198.266" stroke="#5456E1"/>
<circle cx="195.635" cy="103.776" r="3.28947" fill="#5456E1"/>
<path d="M184.135 185.535V197.438C184.135 197.99 184.582 198.438 185.135 198.438H206.135C206.687 198.438 207.135 197.99 207.135 197.438V185.535M184.135 185.535V181.486C184.135 180.934 184.582 180.486 185.135 180.486H206.135C206.687 180.486 207.135 180.934 207.135 181.486V185.535M184.135 185.535H207.135" stroke="#5456E1"/>
<path d="M193.111 190.584L191.428 191.706L194.233 193.95L198.159 189.462L200.964 191.706L199.281 193.389" stroke="#5456E1"/>
<path d="M208.064 153.486C208.064 160.628 202.275 166.418 195.133 166.418C187.991 166.418 182.201 160.628 182.201 153.486C182.201 146.344 187.991 140.555 195.133 140.555C202.274 140.555 208.064 146.344 208.064 153.486" stroke="#5456E1"/>
<path d="M193.807 153.26V150.998H190.738V149.015H199.313V151.026H196.244V153.26H193.807Z" fill="#5456E1"/>
<path fill-rule="evenodd" clip-rule="evenodd" d="M189.42 153.511C189.42 152.757 191.886 152.143 194.954 152.143C198.023 152.143 200.489 152.757 200.489 153.511C200.489 154.265 198.023 154.88 194.954 154.88C191.886 154.88 189.42 154.265 189.42 153.511ZM200.03 153.511C199.829 153.232 198.166 152.366 194.954 152.366C191.743 152.366 190.079 153.204 189.879 153.511C190.079 153.79 191.743 154.209 194.954 154.209C198.195 154.209 199.829 153.79 200.03 153.511Z" fill="#00A478"/>
<path d="M196.245 153.958V152.394C195.843 152.366 195.413 152.338 194.983 152.338C194.582 152.338 194.209 152.338 193.836 152.366V153.93C194.18 153.93 194.582 153.958 194.983 153.958C195.413 153.986 195.843 153.986 196.245 153.958Z" fill="#5456E1"/>
<path d="M194.954 154.879C194.552 154.879 194.179 154.879 193.807 154.851V159.013H196.215V154.823C195.814 154.851 195.384 154.879 194.954 154.879Z" fill="#5456E1"/>
<path d="M145.642 72.1016L146.645 72.6635C146.7 72.6948 146.745 72.7368 146.775 72.7858C146.806 72.8348 146.821 72.8893 146.819 72.9444L146.781 73.7214C146.775 73.844 146.813 73.9651 146.892 74.07C146.971 74.1749 147.086 74.2589 147.224 74.3117C147.362 74.3644 147.516 74.3836 147.668 74.3668C147.82 74.3501 147.962 74.2981 148.078 74.2174C148.445 73.957 148.543 73.6585 148.372 73.3219C148.341 73.2627 148.327 73.199 148.33 73.1353C148.333 73.0716 148.353 73.0095 148.388 72.9532C148.621 72.5845 148.988 72.3855 149.489 72.3562C149.541 72.3532 149.594 72.3588 149.643 72.3726C149.693 72.3864 149.738 72.4081 149.777 72.4364C149.815 72.4647 149.847 72.499 149.868 72.5373C149.89 72.5756 149.902 72.617 149.903 72.6591L150.001 74.7354C150.005 74.8217 149.988 74.9077 149.95 74.9884C149.912 75.0692 149.855 75.1431 149.781 75.2059C149.708 75.2688 149.62 75.3193 149.522 75.3545C149.424 75.3898 149.318 75.4091 149.211 75.4114L145.696 75.486C145.607 75.4885 145.518 75.4761 145.434 75.4496C145.351 75.4231 145.275 75.3831 145.212 75.332C145.149 75.281 145.099 75.22 145.066 75.1529C145.033 75.0857 145.018 75.0139 145.021 74.9417L145.135 72.027C145.139 71.8865 145.112 71.7505 145.053 71.6188C144.952 71.3905 145.001 71.1725 145.201 70.9647C145.887 70.2624 148.481 70.4906 149.424 70.6706C149.587 70.6999 149.714 70.773 149.805 70.8901C150.012 71.1593 150.031 71.4183 149.86 71.6671C149.769 71.8075 149.635 71.8441 149.457 71.7768C148.174 71.2939 146.912 71.3013 145.669 71.7987C145.448 71.8865 145.439 71.9875 145.642 72.1016Z" fill="#1650DF"/>
<path d="M144.002 78.9863V80.4863C144.002 81.0386 144.45 81.4863 145.002 81.4863H149.002C149.554 81.4863 150.002 81.0386 150.002 80.4863V78.9863" stroke="#5456E1"/>
<path d="M150.502 62.4863H143.002V66.9863H140.502V68.9863H139.002V71.4863H140.502V80.9863L144.002 82.9863V84.4863H150.502V82.4863L154.002 79.9863V74.9863H156.002V72.9863H154.002V65.4863H150.502V62.4863Z" stroke="#5456E1"/>
<path d="M152.002 68.4863H142.502V78.9863H152.002V68.4863Z" stroke="#5456E1"/>
<path d="M153.495 103.534L141.35 117.888M147.729 115.884C147.701 115.795 147.696 115.701 147.714 115.61C147.732 115.518 147.774 115.433 147.834 115.362L157.457 103.989C158.026 103.317 158.304 102.447 158.231 101.57C158.158 100.693 157.739 99.8814 157.068 99.3129C156.396 98.7445 155.526 98.4662 154.649 98.5393C153.772 98.6123 152.96 99.0308 152.391 99.7025L142.768 111.075C142.708 111.146 142.631 111.201 142.544 111.234C142.457 111.267 142.363 111.278 142.271 111.265C141.107 111.119 139.925 111.279 138.842 111.73C137.759 112.18 136.813 112.906 136.096 113.834C135.038 115.207 134.559 116.94 134.761 118.661C134.964 120.383 135.833 121.957 137.181 123.046C138.529 124.136 140.25 124.655 141.976 124.492C143.702 124.329 145.295 123.497 146.416 122.174C147.141 121.318 147.641 120.294 147.87 119.196C148.099 118.097 148.051 116.959 147.729 115.884Z" stroke="#5456E1" stroke-width="2" stroke-miterlimit="10" stroke-linecap="round"/>
<path d="M139.207 120.42C140.606 121.604 142.7 121.429 143.883 120.031C145.067 118.632 144.893 116.538 143.494 115.354C142.095 114.171 140.001 114.345 138.818 115.744C137.634 117.143 137.808 119.236 139.207 120.42Z" fill="#5456E1"/>
<path d="M157.902 197.486H155.702C155.41 197.486 155.13 197.364 154.924 197.147C154.718 196.929 154.602 196.635 154.602 196.327V181.645C154.602 181.338 154.718 181.043 154.924 180.826C155.13 180.608 155.41 180.486 155.702 180.486H157.902C158.194 180.486 158.473 180.608 158.68 180.826C158.886 181.043 159.002 181.338 159.002 181.645V196.327C159.002 196.635 158.886 196.929 158.68 197.147C158.473 197.364 158.194 197.486 157.902 197.486ZM152.035 197.486H149.835C149.544 197.486 149.264 197.364 149.057 197.147C148.851 196.929 148.735 196.635 148.735 196.327V185.509C148.735 185.202 148.851 184.907 149.057 184.689C149.264 184.472 149.544 184.35 149.835 184.35H152.035C152.327 184.35 152.607 184.472 152.813 184.689C153.019 184.907 153.135 185.202 153.135 185.509V196.327C153.135 196.635 153.019 196.929 152.813 197.147C152.607 197.364 152.327 197.486 152.035 197.486ZM146.169 197.486H143.969C143.677 197.486 143.397 197.364 143.191 197.147C142.985 196.929 142.869 196.635 142.869 196.327V188.6C142.869 188.293 142.985 187.998 143.191 187.78C143.397 187.563 143.677 187.441 143.969 187.441H146.169C146.46 187.441 146.74 187.563 146.946 187.78C147.153 187.998 147.269 188.293 147.269 188.6V196.327C147.269 196.635 147.153 196.929 146.946 197.147C146.74 197.364 146.46 197.486 146.169 197.486ZM140.302 197.486H138.102C137.81 197.486 137.53 197.364 137.324 197.147C137.118 196.929 137.002 196.635 137.002 196.327V191.691C137.002 191.383 137.118 191.089 137.324 190.871C137.53 190.654 137.81 190.532 138.102 190.532H140.302C140.594 190.532 140.873 190.654 141.08 190.871C141.286 191.089 141.402 191.383 141.402 191.691V196.327C141.402 196.635 141.286 196.929 141.08 197.147C140.873 197.364 140.594 197.486 140.302 197.486Z" fill="#5456E1"/>
<path d="M160.931 153.486C160.931 160.628 155.142 166.418 148 166.418C140.858 166.418 135.068 160.628 135.068 153.486C135.068 146.344 140.858 140.555 148 140.555C155.142 140.555 160.931 146.344 160.931 153.486" stroke="#5456E1"/>
<path d="M144.098 148.754V157.972V158.81H144.517C145.96 158.886 147.141 158.783 148.108 158.563C152.426 157.583 153.108 150.586 148.993 148.953C146.682 148.036 144.098 148.754 144.098 148.754Z" stroke="#5456E1"/>
<path d="M142.002 152.524H154.573" stroke="#5456E1"/>
<path d="M142.002 155.039H154.333" stroke="#5456E1"/>
<path d="M288.217 71.7248L287.981 71.7444L287.785 71.7298C287.255 71.6906 286.871 71.5006 286.62 71.2279C286.454 71.0482 286.327 70.8133 286.26 70.5213H286.446C286.63 71.0536 287.074 71.4565 287.677 71.5421L287.758 71.5536V71.5737L287.862 71.5683L288.248 71.6231V71.5483L288.284 71.5464C288.682 71.5258 289.045 71.3935 289.305 71.1106C289.562 70.8306 289.658 70.4686 289.658 70.108C289.658 69.7557 289.554 69.4151 289.304 69.1445C289.059 68.8796 288.72 68.7316 288.343 68.6668L288.085 68.6225L287.907 68.5625L287.48 68.4189L287.472 68.4162L287.464 68.4138C287.065 68.2947 286.792 68.0987 286.615 67.851C286.436 67.6013 286.326 67.2585 286.326 66.7985C286.326 66.2538 286.477 65.8501 286.712 65.5754C286.945 65.3036 287.3 65.1125 287.799 65.0612L288.005 65.04L288.206 65.0611C288.715 65.1144 289.065 65.3091 289.292 65.5758C289.439 65.7484 289.551 65.9695 289.614 66.2386H289.448C289.401 66.0842 289.33 65.9356 289.229 65.8014C289.015 65.5165 288.697 65.3379 288.31 65.2975L288.248 65.291V65.2581L288.06 65.2714L287.758 65.2399V65.2928L287.712 65.2961C286.983 65.3478 286.493 65.94 286.493 66.6674C286.493 66.9971 286.59 67.3065 286.805 67.5587C287.015 67.8047 287.303 67.9556 287.615 68.0414L288.248 68.2149V68.2017L288.605 68.3101L288.605 68.3102L288.615 68.313C289.052 68.4362 289.334 68.6291 289.511 68.8687C289.69 69.1099 289.801 69.4507 289.801 69.9392C289.801 70.5132 289.65 70.9277 289.407 71.2053C289.168 71.4792 288.789 71.6773 288.217 71.7248Z" fill="black" stroke="#5456E1"/>
<path d="M300.791 61.4863H275.791C275.239 61.4863 274.791 61.934 274.791 62.4863V80.5927C274.791 81.145 275.239 81.5927 275.791 81.5927H300.791C301.343 81.5927 301.791 81.145 301.791 80.5927V62.4863C301.791 61.934 301.343 61.4863 300.791 61.4863Z" stroke="#5456E1"/>
<path d="M278.238 75.2734H297.77" stroke="#5456E1"/>
<path d="M281.109 77.5713H294.897" stroke="#5456E1"/>
<path d="M289.031 106.643C289.379 106.296 289.377 105.731 289.028 105.382C288.679 105.032 288.114 105.031 287.766 105.378C287.418 105.726 287.42 106.291 287.769 106.64C288.119 106.99 288.684 106.991 289.031 106.643Z" fill="#5456E1"/>
<path d="M283.934 119.404V122.976M278.577 97.9756H289.291C289.765 97.9756 290.219 98.1637 290.554 98.4986C290.889 98.8335 291.077 99.2877 291.077 99.7613V122.752C291.077 122.812 291.053 122.868 291.011 122.91C290.969 122.952 290.913 122.976 290.854 122.976H276.791V99.7613C276.791 99.2877 276.979 98.8335 277.314 98.4986C277.649 98.1637 278.103 97.9756 278.577 97.9756ZM291.97 106.904H298.22C298.693 106.904 299.147 107.092 299.482 107.427C299.817 107.762 300.005 108.216 300.005 108.69V122.976H291.077V107.797C291.077 107.56 291.171 107.333 291.338 107.166C291.506 106.998 291.733 106.904 291.97 106.904Z" stroke="#5456E1" stroke-width="2" stroke-linecap="round" stroke-linejoin="round"/>
<path d="M279.585 120.29C279.4 120.314 279.212 120.279 279.048 120.191C278.883 120.103 278.75 119.966 278.668 119.799C278.586 119.632 278.558 119.443 278.588 119.259C278.619 119.075 278.706 118.905 278.838 118.773C278.97 118.641 279.139 118.554 279.323 118.523C279.507 118.493 279.696 118.521 279.864 118.603C280.031 118.686 280.168 118.818 280.256 118.983C280.344 119.147 280.379 119.335 280.354 119.52C280.329 119.715 280.24 119.896 280.1 120.036C279.961 120.175 279.78 120.264 279.585 120.29ZM279.585 115.825C279.4 115.85 279.212 115.815 279.048 115.727C278.883 115.639 278.75 115.502 278.668 115.335C278.586 115.167 278.558 114.978 278.588 114.794C278.619 114.61 278.706 114.441 278.838 114.309C278.97 114.177 279.139 114.09 279.323 114.059C279.507 114.029 279.696 114.057 279.864 114.139C280.031 114.221 280.168 114.354 280.256 114.519C280.344 114.683 280.379 114.871 280.354 115.056C280.329 115.251 280.24 115.432 280.1 115.571C279.961 115.711 279.78 115.8 279.585 115.825ZM279.585 111.361C279.4 111.385 279.212 111.351 279.048 111.263C278.883 111.175 278.75 111.038 278.668 110.87C278.586 110.703 278.558 110.514 278.588 110.33C278.619 110.146 278.706 109.976 278.838 109.844C278.97 109.713 279.139 109.625 279.323 109.595C279.507 109.564 279.696 109.592 279.864 109.675C280.031 109.757 280.168 109.89 280.256 110.054C280.344 110.219 280.379 110.407 280.354 110.592C280.329 110.787 280.24 110.968 280.1 111.107C279.961 111.246 279.78 111.336 279.585 111.361ZM279.585 106.897C279.4 106.921 279.212 106.887 279.048 106.799C278.883 106.711 278.75 106.573 278.668 106.406C278.586 106.239 278.558 106.05 278.588 105.866C278.619 105.682 278.706 105.512 278.838 105.38C278.97 105.248 279.139 105.161 279.323 105.131C279.507 105.1 279.696 105.128 279.864 105.21C280.031 105.293 280.168 105.426 280.256 105.59C280.344 105.754 280.379 105.942 280.354 106.127C280.329 106.322 280.24 106.504 280.1 106.643C279.961 106.782 279.78 106.871 279.585 106.897ZM279.585 102.432C279.4 102.457 279.212 102.422 279.048 102.334C278.883 102.246 278.75 102.109 278.668 101.942C278.586 101.774 278.558 101.586 278.588 101.402C278.619 101.218 278.706 101.048 278.838 100.916C278.97 100.784 279.139 100.697 279.323 100.666C279.507 100.636 279.696 100.664 279.864 100.746C280.031 100.829 280.168 100.961 280.256 101.126C280.344 101.29 280.379 101.478 280.354 101.663C280.329 101.858 280.24 102.039 280.1 102.179C279.961 102.318 279.78 102.407 279.585 102.432ZM284.049 115.825C283.864 115.85 283.676 115.815 283.512 115.727C283.348 115.639 283.215 115.502 283.132 115.335C283.05 115.167 283.022 114.978 283.052 114.794C283.083 114.61 283.17 114.441 283.302 114.309C283.434 114.177 283.604 114.09 283.788 114.059C283.972 114.029 284.161 114.057 284.328 114.139C284.495 114.221 284.632 114.354 284.72 114.519C284.808 114.683 284.843 114.871 284.819 115.056C284.793 115.251 284.704 115.432 284.565 115.571C284.425 115.711 284.244 115.8 284.049 115.825ZM284.049 111.361C283.864 111.385 283.676 111.351 283.512 111.263C283.348 111.175 283.215 111.038 283.132 110.87C283.05 110.703 283.022 110.514 283.052 110.33C283.083 110.146 283.17 109.976 283.302 109.844C283.434 109.713 283.604 109.625 283.788 109.595C283.972 109.564 284.161 109.592 284.328 109.675C284.495 109.757 284.632 109.89 284.72 110.054C284.808 110.219 284.843 110.407 284.819 110.592C284.793 110.787 284.704 110.968 284.565 111.107C284.425 111.246 284.244 111.336 284.049 111.361ZM284.049 106.897C283.864 106.921 283.676 106.887 283.512 106.799C283.348 106.711 283.215 106.573 283.132 106.406C283.05 106.239 283.022 106.05 283.052 105.866C283.083 105.682 283.17 105.512 283.302 105.38C283.434 105.248 283.604 105.161 283.788 105.131C283.972 105.1 284.161 105.128 284.328 105.21C284.495 105.293 284.632 105.426 284.72 105.59C284.808 105.754 284.843 105.942 284.819 106.127C284.793 106.322 284.704 106.504 284.565 106.643C284.425 106.782 284.244 106.871 284.049 106.897ZM284.049 102.432C283.864 102.457 283.676 102.422 283.512 102.334C283.348 102.246 283.215 102.109 283.132 101.942C283.05 101.774 283.022 101.586 283.052 101.402C283.083 101.218 283.17 101.048 283.302 100.916C283.434 100.784 283.604 100.697 283.788 100.666C283.972 100.636 284.161 100.664 284.328 100.746C284.495 100.829 284.632 100.961 284.72 101.126C284.808 101.29 284.843 101.478 284.819 101.663C284.793 101.858 284.704 102.039 284.565 102.179C284.425 102.318 284.244 102.407 284.049 102.432ZM288.513 120.29C288.328 120.314 288.141 120.279 287.976 120.191C287.812 120.103 287.679 119.966 287.597 119.799C287.514 119.632 287.486 119.443 287.517 119.259C287.547 119.075 287.634 118.905 287.766 118.773C287.898 118.641 288.068 118.554 288.252 118.523C288.436 118.493 288.625 118.521 288.792 118.603C288.959 118.686 289.097 118.818 289.185 118.983C289.273 119.147 289.307 119.335 289.283 119.52C289.257 119.715 289.168 119.896 289.029 120.036C288.89 120.175 288.709 120.264 288.513 120.29ZM288.513 115.825C288.328 115.85 288.141 115.815 287.976 115.727C287.812 115.639 287.679 115.502 287.597 115.335C287.514 115.167 287.486 114.978 287.517 114.794C287.547 114.61 287.634 114.441 287.766 114.309C287.898 114.177 288.068 114.09 288.252 114.059C288.436 114.029 288.625 114.057 288.792 114.139C288.959 114.221 289.097 114.354 289.185 114.519C289.273 114.683 289.307 114.871 289.283 115.056C289.257 115.251 289.168 115.432 289.029 115.571C288.89 115.711 288.709 115.8 288.513 115.825ZM288.513 111.361C288.328 111.385 288.141 111.351 287.976 111.263C287.812 111.175 287.679 111.038 287.597 110.87C287.514 110.703 287.486 110.514 287.517 110.33C287.547 110.146 287.634 109.976 287.766 109.844C287.898 109.713 288.068 109.625 288.252 109.595C288.436 109.564 288.625 109.592 288.792 109.675C288.959 109.757 289.097 109.89 289.185 110.054C289.273 110.219 289.307 110.407 289.283 110.592C289.257 110.787 289.168 110.968 289.029 111.107C288.89 111.246 288.709 111.336 288.513 111.361Z" fill="#5456E1"/>
<path d="M288.515 102.432C288.33 102.457 288.142 102.422 287.977 102.334C287.813 102.246 287.68 102.109 287.598 101.942C287.515 101.774 287.487 101.586 287.518 101.402C287.548 101.218 287.636 101.048 287.767 100.916C287.899 100.784 288.069 100.697 288.253 100.666C288.437 100.636 288.626 100.664 288.793 100.746C288.961 100.829 289.098 100.961 289.186 101.126C289.274 101.29 289.308 101.478 289.284 101.663C289.259 101.858 289.169 102.039 289.03 102.179C288.891 102.318 288.71 102.407 288.515 102.432ZM296.434 118.511C296.258 118.511 296.085 118.564 295.938 118.662C295.791 118.76 295.677 118.899 295.609 119.062C295.542 119.225 295.524 119.405 295.558 119.578C295.593 119.751 295.678 119.91 295.803 120.035C295.928 120.16 296.087 120.245 296.26 120.28C296.433 120.314 296.613 120.296 296.776 120.229C296.939 120.161 297.078 120.047 297.177 119.9C297.275 119.753 297.327 119.581 297.327 119.404C297.327 119.167 297.233 118.94 297.065 118.773C296.898 118.605 296.671 118.511 296.434 118.511ZM296.434 114.047C296.258 114.047 296.085 114.099 295.938 114.197C295.791 114.295 295.677 114.435 295.609 114.598C295.542 114.761 295.524 114.941 295.558 115.114C295.593 115.287 295.678 115.446 295.803 115.571C295.928 115.696 296.087 115.781 296.26 115.815C296.433 115.85 296.613 115.832 296.776 115.765C296.939 115.697 297.078 115.583 297.177 115.436C297.275 115.289 297.327 115.116 297.327 114.94C297.327 114.703 297.233 114.476 297.065 114.308C296.898 114.141 296.671 114.047 296.434 114.047ZM296.434 109.583C296.258 109.583 296.085 109.635 295.938 109.733C295.791 109.831 295.677 109.971 295.609 110.134C295.542 110.297 295.524 110.476 295.558 110.65C295.593 110.823 295.678 110.982 295.803 111.107C295.928 111.232 296.087 111.317 296.26 111.351C296.433 111.386 296.613 111.368 296.776 111.3C296.939 111.233 297.078 111.118 297.177 110.971C297.275 110.825 297.327 110.652 297.327 110.475C297.327 110.239 297.233 110.012 297.065 109.844C296.898 109.677 296.671 109.583 296.434 109.583ZM292.863 118.511C292.686 118.511 292.514 118.564 292.367 118.662C292.22 118.76 292.105 118.899 292.038 119.062C291.97 119.225 291.953 119.405 291.987 119.578C292.021 119.751 292.107 119.91 292.231 120.035C292.356 120.16 292.515 120.245 292.689 120.28C292.862 120.314 293.041 120.296 293.204 120.229C293.368 120.161 293.507 120.047 293.605 119.9C293.703 119.753 293.756 119.581 293.756 119.404C293.756 119.167 293.662 118.94 293.494 118.773C293.327 118.605 293.1 118.511 292.863 118.511ZM292.863 114.047C292.686 114.047 292.514 114.099 292.367 114.197C292.22 114.295 292.105 114.435 292.038 114.598C291.97 114.761 291.953 114.941 291.987 115.114C292.021 115.287 292.107 115.446 292.231 115.571C292.356 115.696 292.515 115.781 292.689 115.815C292.862 115.85 293.041 115.832 293.204 115.765C293.368 115.697 293.507 115.583 293.605 115.436C293.703 115.289 293.756 115.116 293.756 114.94C293.756 114.703 293.662 114.476 293.494 114.308C293.327 114.141 293.1 114.047 292.863 114.047ZM292.863 109.583C292.686 109.583 292.514 109.635 292.367 109.733C292.22 109.831 292.105 109.971 292.038 110.134C291.97 110.297 291.953 110.476 291.987 110.65C292.021 110.823 292.107 110.982 292.231 111.107C292.356 111.232 292.515 111.317 292.689 111.351C292.862 111.386 293.041 111.368 293.204 111.3C293.368 111.233 293.507 111.118 293.605 110.971C293.703 110.825 293.756 110.652 293.756 110.475C293.756 110.239 293.662 110.012 293.494 109.844C293.327 109.677 293.1 109.583 292.863 109.583Z" fill="#5456E1"/>
<path d="M282.491 189.681L278.591 193.292" stroke="#5456E1"/>
<path d="M288.291 194.486L282.791 199.986" stroke="#5456E1"/>
<path d="M283.291 193.486L277.791 198.986" stroke="#5456E1"/>
<circle cx="290.791" cy="186.486" r="9" fill="#5456E1"/>
<circle cx="289.791" cy="182.486" r="2" fill="#000101"/>
<circle cx="294.791" cy="183.486" r="2" fill="#000101"/>
<circle cx="295.584" cy="188.279" r="2" fill="#000101"/>
<circle cx="290.791" cy="190.486" r="2" fill="#000101"/>
<circle cx="286.791" cy="186.486" r="2" fill="#000101"/>
<path d="M301.72 153.486C301.72 160.628 295.931 166.418 288.789 166.418C281.647 166.418 275.857 160.628 275.857 153.486C275.857 146.344 281.647 140.555 288.789 140.555C295.931 140.555 301.72 146.344 301.72 153.486" stroke="#5456E1"/>
<g opacity="0.8">
<path d="M288.748 147.486L288.668 147.758V155.636L288.748 155.715L292.405 153.554L288.748 147.486Z" fill="#5456E1"/>
<path d="M288.749 147.486L285.092 153.554L288.749 155.715V151.892V147.486Z" fill="#5456E1"/>
<path d="M288.748 156.906L288.703 156.96V159.767L288.748 159.898L292.407 154.745L288.748 156.906Z" fill="#5456E1"/>
<path d="M288.749 159.898V156.906L285.092 154.745L288.749 159.898Z" fill="#5456E1"/>
<path d="M288.748 155.715L292.405 153.554L288.748 151.892V155.715Z" fill="#5456E1"/>
<path d="M285.092 153.554L288.749 155.715V151.892L285.092 153.554Z" fill="#5456E1"/>
</g>
<path d="M230.791 62.4863V83.4863C230.791 84.0386 231.239 84.4863 231.791 84.4863H252.791" stroke="#5456E1"/>
<path d="M234.547 79.6569L239.35 72.9326C239.664 72.4934 240.269 72.3824 240.718 72.6818L243.91 74.8095C244.369 75.1159 244.99 74.9917 245.297 74.5322L250.108 67.3154" stroke="#5456E1"/>
<circle cx="234.547" cy="79.1571" r="1.64634" fill="white" stroke="#5456E1"/>
<circle cx="239.914" cy="71.6444" r="1.64634" fill="white" stroke="#5456E1"/>
<circle cx="245.279" cy="74.8641" r="1.64634" fill="white" stroke="#5456E1"/>
<circle cx="250.644" cy="66.2792" r="1.64634" fill="white" stroke="#5456E1"/>
<path d="M242.744 183.089C242.744 183.089 245.979 178.236 251.919 181.784M252.226 181.973C252.123 181.907 252.021 181.844 251.919 181.784M251.919 181.784C251.919 181.784 256.131 186.435 251.919 191.456M251.919 191.456C251.919 191.456 252.226 196.476 249.438 197.591L233.262 198.149C233.262 198.149 225.453 192.013 233.262 188.667C233.262 188.667 236.609 180.858 241.629 183.646C241.629 183.646 243.86 183.089 244.418 186.993C244.418 186.993 248.322 185.32 249.996 191.456H251.919Z" stroke="#5456E1" stroke-width="2"/>
<path d="M248.791 114.486H247.541L245.791 118.929L244.041 114.486H242.791L244.547 118.665H243.791V119.629H244.94L245.166 120.252V120.593H243.791V121.558H245.166V123.486H246.416V121.558H247.791V120.593H246.416V120.252L246.649 119.629H247.791V118.665H247.036L248.791 114.486Z" fill="#5456E1"/>
<path d="M239.902 111.486V110.673C237.971 110.571 236.797 109.657 236.791 108.272H238.541C238.584 108.86 239.121 109.309 239.902 109.388V107.201L239.251 107.044C237.769 106.728 236.975 105.942 236.975 104.766C236.975 103.379 238.057 102.47 239.902 102.335V101.486H240.68V102.335C242.561 102.475 243.572 103.4 243.597 104.701H241.847C241.828 104.164 241.462 103.732 240.68 103.674V105.727L241.429 105.89C243.004 106.206 243.791 106.955 243.791 108.183C243.791 109.619 242.728 110.546 240.68 110.668V111.486H239.902ZM239.902 105.593V103.674C239.232 103.708 238.753 104.086 238.753 104.623C238.753 105.121 239.152 105.446 239.902 105.593ZM240.68 107.335V109.388C241.607 109.354 242.05 108.966 242.05 108.366C242.05 107.818 241.607 107.448 240.68 107.335Z" fill="#5456E1"/>
<path d="M237.8 116.197C237.679 116.024 237.501 115.9 237.295 115.847C237.09 115.794 236.872 115.815 236.68 115.907C234.71 116.847 236.2 119.457 238.38 118.757C238.424 118.744 238.471 118.743 238.516 118.753C238.561 118.764 238.603 118.786 238.637 118.817C238.671 118.848 238.696 118.887 238.711 118.931C238.726 118.975 238.729 119.022 238.72 119.067C238.7 119.167 238.68 119.27 238.66 119.377C238.607 119.644 238.453 119.834 238.2 119.947L236.66 120.597C236.442 120.689 236.267 120.862 236.172 121.079C236.076 121.295 236.067 121.54 236.147 121.764C236.226 121.987 236.387 122.172 236.598 122.28C236.808 122.388 237.052 122.412 237.28 122.347C238.113 122.1 238.81 122.027 239.37 122.127C239.56 122.17 239.729 122.282 239.843 122.44C239.957 122.599 240.009 122.793 239.989 122.988C239.969 123.182 239.879 123.362 239.736 123.495C239.592 123.627 239.405 123.703 239.21 123.707L234.1 123.617C234.044 123.615 233.989 123.598 233.941 123.568C233.894 123.539 233.855 123.497 233.828 123.447C233.802 123.397 233.789 123.342 233.791 123.285C233.793 123.229 233.81 123.175 233.84 123.127L234.44 122.207C234.6 121.96 234.673 121.694 234.66 121.407L234.39 116.717C234.365 116.258 234.495 115.804 234.76 115.428C235.025 115.052 235.409 114.777 235.85 114.647C237.277 114.22 238.44 114.644 239.34 115.917C239.847 116.644 239.853 117.23 239.36 117.677C239.14 117.884 238.943 117.864 238.77 117.617L237.8 116.197Z" fill="#5456E1"/>
<path d="M254.401 156.631C252.665 163.596 245.611 167.834 238.646 166.097C231.684 164.361 227.445 157.307 229.182 150.343C230.918 143.378 237.971 139.139 244.935 140.875C251.899 142.612 256.137 149.667 254.401 156.631H254.401Z" stroke="#5456E1"/>
<path fill-rule="evenodd" clip-rule="evenodd" d="M246.206 151.976C246.382 150.803 245.488 150.172 244.266 149.751L244.663 148.161L243.695 147.92L243.309 149.468C243.055 149.404 242.794 149.345 242.534 149.285L242.923 147.727L241.956 147.486L241.559 149.075C241.348 149.027 241.142 148.98 240.941 148.93L240.942 148.925L239.608 148.592L239.35 149.625C239.35 149.625 240.068 149.79 240.053 149.8C240.445 149.898 240.516 150.157 240.504 150.363L240.053 152.174C240.08 152.181 240.115 152.191 240.153 152.206L240.051 152.181L239.418 154.718C239.37 154.837 239.249 155.015 238.975 154.947C238.984 154.962 238.271 154.772 238.271 154.772L237.791 155.88L239.05 156.194C239.193 156.229 239.333 156.266 239.472 156.302C239.562 156.326 239.651 156.349 239.74 156.372L239.34 157.98L240.306 158.221L240.703 156.63C240.967 156.702 241.223 156.768 241.474 156.83L241.079 158.414L242.046 158.655L242.447 157.05C244.097 157.362 245.338 157.236 245.859 155.744C246.28 154.543 245.839 153.85 244.971 153.397C245.603 153.251 246.079 152.835 246.206 151.976H246.206ZM243.995 155.076C243.72 156.179 241.994 155.723 241.205 155.514C241.134 155.495 241.071 155.479 241.017 155.465L241.548 153.335C241.614 153.352 241.695 153.37 241.786 153.39L241.786 153.39C242.602 153.573 244.276 153.949 243.995 155.076H243.995ZM241.95 152.402C242.609 152.578 244.044 152.961 244.294 151.959C244.55 150.934 243.154 150.625 242.472 150.474C242.396 150.457 242.328 150.442 242.273 150.428L241.791 152.36C241.837 152.372 241.89 152.386 241.95 152.402Z" fill="#5456E1"/>
<defs>
<filter id="filter0_b_121_8" x="-156" y="-155.514" width="1344" height="572" filterUnits="userSpaceOnUse" color-interpolation-filters="sRGB">
<feFlood flood-opacity="0" result="BackgroundImageFix"/>
<feGaussianBlur in="BackgroundImageFix" stdDeviation="78"/>
<feComposite in2="SourceAlpha" operator="in" result="effect1_backgroundBlur_121_8"/>
<feBlend mode="normal" in="SourceGraphic" in2="effect1_backgroundBlur_121_8" result="shape"/>
</filter>
<linearGradient id="paint0_linear_121_8" x1="516" y1="0.486328" x2="516" y2="260.486" gradientUnits="userSpaceOnUse">
<stop stop-color="white" stop-opacity="0.18"/>
<stop offset="1" stop-color="white" stop-opacity="0"/>
</linearGradient>
<linearGradient id="paint1_linear_121_8" x1="667.5" y1="107.486" x2="663.787" y2="107.496" gradientUnits="userSpaceOnUse">
<stop stop-color="#3892E3"/>
<stop offset="1" stop-color="#17E7C6"/>
</linearGradient>
<linearGradient id="paint2_linear_121_8" x1="675.5" y1="107.486" x2="671.787" y2="107.496" gradientUnits="userSpaceOnUse">
<stop stop-color="#3892E3"/>
<stop offset="1" stop-color="#17E7C6"/>
</linearGradient>
<linearGradient id="paint3_linear_121_8" x1="683.5" y1="107.486" x2="679.787" y2="107.496" gradientUnits="userSpaceOnUse">
<stop stop-color="#3892E3"/>
<stop offset="1" stop-color="#17E7C6"/>
</linearGradient>
</defs>
</svg>
